<svg id="Layer_1" height="512" viewBox="0 0 128 128" width="512" xmlns="http://www.w3.org/2000/svg" data-name="Layer 1"><path d="m91.125 22.442c-12.979 0-18.732 6.292-24.3 12.376-3.064 3.352-6.233 6.817-10.687 9.323-6.342 3.567-12.3 2.911-18.6 2.215-6.845-.754-14.6-1.61-23.483 3.1-.038.02-.074.041-.11.063-8.242 5.17-9.2 14.095-9.2 20.358 0 23.425 22.428 35.682 44.583 35.682 12.749 0 18.306-7.01 23.208-13.194 3.618-4.563 6.743-8.5 12.188-9.462 23.041-3.05 38.521-15.535 38.521-31.068.005-14.607-11.03-29.393-32.12-29.393zm-6.927 57c-6.829 1.2-10.677 6.052-14.4 10.746-4.839 6.1-9.409 11.868-20.466 11.868-20.415.002-41.082-11.056-41.082-32.18 0-8.722 2.314-14.079 7.5-17.36 7.9-4.169 14.766-3.412 21.4-2.68 6.577.723 13.381 1.475 20.7-2.644 4.943-2.781 8.3-6.457 11.555-10.012 5.514-6.03 10.276-11.238 21.712-11.238 18.792 0 28.625 13.024 28.625 25.891.008 13.698-14.25 24.79-35.542 27.61z"/><path d="m30.587 70.26c.795-1 1.135-1.343 1.83-1.343s1.037.349 1.833 1.343c.9 1.122 2.125 2.657 4.567 2.657s3.67-1.535 4.568-2.656c.8-1 1.138-1.344 1.836-1.344s1.039.349 1.836 1.344c.9 1.121 2.126 2.656 4.568 2.656a1.75 1.75 0 0 0 0-3.5c-.7 0-1.039-.349-1.836-1.344-.9-1.121-2.126-2.656-4.568-2.656s-3.671 1.535-4.568 2.656c-.8 1-1.138 1.344-1.835 1.344s-1.038-.349-1.833-1.344c-.9-1.121-2.125-2.656-4.566-2.656s-3.668 1.536-4.564 2.657c-.795 1-1.135 1.343-1.83 1.343s-1.037-.348-1.832-1.343c-.9-1.121-2.125-2.657-4.565-2.657a1.75 1.75 0 0 0 0 3.5c.7 0 1.037.348 1.832 1.343.9 1.121 2.125 2.657 4.565 2.657s3.665-1.536 4.562-2.657z"/><path d="m59 81.417c-.7 0-1.039-.349-1.836-1.344-.9-1.121-2.126-2.656-4.568-2.656s-3.671 1.535-4.568 2.656c-.8 1-1.138 1.344-1.835 1.344s-1.038-.349-1.833-1.344c-.9-1.121-2.125-2.656-4.566-2.656s-3.668 1.536-4.564 2.657c-.795 1-1.135 1.343-1.83 1.343s-1.037-.348-1.832-1.343c-.9-1.121-2.125-2.657-4.565-2.657a1.75 1.75 0 0 0 0 3.5c.7 0 1.037.348 1.832 1.343.9 1.121 2.125 2.657 4.565 2.657s3.668-1.536 4.564-2.657c.795-1 1.135-1.343 1.83-1.343s1.037.349 1.833 1.343c.9 1.122 2.125 2.657 4.567 2.657s3.67-1.535 4.568-2.656c.8-1 1.138-1.344 1.836-1.344s1.039.349 1.836 1.344c.9 1.121 2.126 2.656 4.568 2.656a1.75 1.75 0 0 0 0-3.5z"/><path d="m111.458 45.917c-.7 0-1.039-.349-1.836-1.344-.9-1.121-2.126-2.656-4.568-2.656s-3.671 1.535-4.568 2.656c-.8 1-1.138 1.344-1.836 1.344s-1.037-.349-1.833-1.343c-.9-1.122-2.125-2.657-4.567-2.657s-3.667 1.536-4.564 2.657c-.795 1-1.135 1.343-1.83 1.343s-1.037-.348-1.832-1.343c-.9-1.121-2.125-2.657-4.565-2.657a1.75 1.75 0 0 0 0 3.5c.7 0 1.037.348 1.832 1.343.9 1.121 2.125 2.657 4.565 2.657s3.668-1.536 4.564-2.657c.795-1 1.135-1.343 1.83-1.343s1.038.349 1.833 1.344c.9 1.121 2.125 2.656 4.566 2.656s3.671-1.535 4.568-2.656c.8-1 1.138-1.344 1.836-1.344s1.039.349 1.836 1.344c.9 1.121 2.126 2.656 4.568 2.656a1.75 1.75 0 1 0 0-3.5z"/></svg>